<svg width="83" height="83" viewBox="0 0 83 83" fill="none" xmlns="http://www.w3.org/2000/svg">
<path d="M51.5429 10.0651C52.4382 9.197 51.9437 7.68535 50.7069 7.50735L46.0652 6.83642C45.5735 6.76522 45.1493 6.45851 44.9289 6.01624L42.8532 1.83593C42.2995 0.721358 40.7004 0.721358 40.1468 1.83593L38.0711 6.01624C37.8507 6.45851 37.4265 6.76522 36.9348 6.83642L32.2931 7.50735C31.0563 7.68672 30.5618 9.19837 31.4571 10.0651L34.815 13.3198C35.1704 13.6649 35.3329 14.1605 35.2489 14.648L34.4556 19.2432C34.2448 20.4687 35.5382 21.4025 36.6442 20.8247L40.7955 18.6558C41.2349 18.4257 41.7596 18.4257 42.2004 18.6558L46.3517 20.8247C47.4591 21.4025 48.7524 20.4687 48.5403 19.2432L47.747 14.648C47.6629 14.1619 47.8255 13.6649 48.1808 13.3198L51.5388 10.0651H51.5429Z" fill="#686157"/>
<path d="M78.5212 19.0651C79.4591 18.197 78.9411 16.6854 77.6453 16.5074L72.7826 15.8364C72.2675 15.7652 71.8231 15.4585 71.5922 15.0162L69.4177 10.8359C68.8376 9.72136 67.1624 9.72136 66.5823 10.8359L64.4078 15.0162C64.1769 15.4585 63.7325 15.7652 63.2174 15.8364L58.3547 16.5074C57.0589 16.6867 56.5409 18.1984 57.4788 19.0651L60.9967 22.3198C61.369 22.6649 61.5393 23.1605 61.4512 23.648L60.6201 28.2432C60.3979 29.4687 61.7542 30.4025 62.9129 29.8247L67.2619 27.6558C67.7222 27.4257 68.272 27.4257 68.7337 27.6558L73.0827 29.8247C74.2429 30.4025 75.5978 29.4687 75.3756 28.2432L74.5444 23.648C74.4564 23.1619 74.6267 22.6649 74.999 22.3198L78.5168 19.0651H78.5212Z" fill="#686157"/>
<path d="M7.62443 28.2432C7.40366 29.4687 8.75858 30.4025 9.91726 29.8247L14.2663 27.6558C14.7266 27.4257 15.2763 27.4257 15.7381 27.6558L20.0871 29.8247C21.2472 30.4025 22.6021 29.4687 22.3799 28.2432L21.5488 23.648C21.4607 23.1619 21.631 22.6649 22.0033 22.3198L25.5212 19.0651C26.4591 18.197 25.9411 16.6854 24.6453 16.5074L19.7826 15.8364C19.2675 15.7652 18.8231 15.4585 18.5922 15.0162L16.4177 10.8359C15.8376 9.72136 14.1624 9.72136 13.5823 10.8359L11.4078 15.0162C11.1769 15.4585 10.7325 15.7652 10.2174 15.8364L5.35469 16.5074C4.05894 16.6867 3.54092 18.1984 4.47883 19.0651L7.99671 22.3198C8.36899 22.6649 8.53925 23.1605 8.45123 23.648L7.6201 28.2432H7.62443Z" fill="#686157"/>
<path d="M25.5 79.5H16.5V52.5H25.5V79.5ZM20.9993 52.7632C19.3726 52.7632 18.0946 54.0965 18.0946 55.6919V58.6193C18.0946 60.2147 19.3726 61.548 20.9993 61.548C22.626 61.548 23.904 60.2147 23.904 58.6193V55.6919C23.904 54.0965 22.626 52.7632 20.9993 52.7632Z" stroke="#686157" stroke-width="3"/>
<path d="M59.2891 73.7781L59.2874 73.7832C58.7548 75.4214 57.2668 76.5 55.5968 76.5H31.5013L31.5001 56.3861C33.6661 55.6325 35.4845 54.0527 36.5479 51.9163C36.548 51.9162 36.5481 51.916 36.5482 51.9158L44.3172 36.321C44.5675 35.819 45.0919 35.5 45.6245 35.5C46.4207 35.5 47.1057 36.1656 47.1057 37.0209C47.1057 37.0355 47.1046 37.0648 47.101 37.1131C47.0984 37.1482 47.0959 37.175 47.0928 37.2086C47.0919 37.2186 47.0909 37.2292 47.0899 37.2407L45.8623 46.9988L45.8622 46.9997C45.7578 47.8335 46.0152 48.6705 46.5599 49.3009C47.1145 49.9429 47.9191 50.3089 48.7622 50.3089H61.5962C62.8613 50.3089 64.0044 50.8982 64.7519 51.9505L64.7527 51.9515C65.5037 53.0067 65.699 54.3048 65.2917 55.5394L65.2913 55.5404L59.2891 73.7781Z" stroke="#686157" stroke-width="3"/>
</svg>
