<svg width="83" height="83" viewBox="0 0 83 83" fill="none" xmlns="http://www.w3.org/2000/svg">
<path d="M27.5001 54.884L23.2961 55.4566C22.1429 53.9622 21.2673 52.2379 20.7559 50.3558L26.1426 49.6221C26.4763 51.4285 26.9328 53.2099 27.5001 54.884ZM36.3605 61.1165C36.4535 61.1074 36.5465 61.0991 36.6392 61.0881C37.5636 60.871 38.5292 59.3392 39.1343 57.1163L32.976 57.9553C34.1691 59.9708 35.4195 61.0858 36.3605 61.1165ZM26.882 58.785C27.8593 59.4284 28.9162 59.9557 30.0305 60.3524C29.6647 59.7741 29.3175 59.1538 28.9904 58.4975L26.882 58.785ZM26.312 35.1318C26.3699 34.914 26.4319 34.7032 26.4955 34.4949C25.4384 35.2374 24.4757 36.1225 23.6327 37.1387L25.9376 36.8247C26.0447 36.2399 26.168 35.673 26.312 35.1318ZM32.7254 32.0136C32.7091 32.0136 32.6933 32.0163 32.6774 32.017C32.6025 32.0286 32.5277 32.0404 32.4531 32.0533C31.5272 32.303 30.5639 33.8613 29.9677 36.1034C29.9525 36.1605 29.9417 36.2237 29.9269 36.2816L36.2879 35.4151C35.0375 33.2202 33.7069 32.0136 32.7254 32.0136ZM39.2347 44.0216C38.8875 42.1603 38.4287 40.4822 37.9048 39.0116L29.3254 40.1804C29.2093 41.8072 29.2282 43.5549 29.3844 45.3637L39.2347 44.0216ZM25.506 40.7004L21.2018 41.2867C20.5542 42.9781 20.2294 44.777 20.2445 46.6083L25.6293 45.8749C25.4683 44.0947 25.4286 42.3544 25.506 40.7004ZM76.4111 13.7989L69.3204 63.4947C68.8567 66.7441 66.38 69.3062 63.2755 69.9972C63.493 71.8948 62.9846 73.7709 61.8251 75.2962C60.6329 76.8644 58.9013 77.8746 56.9489 78.1404L21.7706 82.9318C21.4385 82.9772 21.1015 82.9999 20.7687 82.9999C17.1017 82.9999 13.9632 80.2569 13.4674 76.6192L6.57797 26.0346C6.31202 24.0826 6.82236 22.1438 8.01447 20.5753C9.20671 19.0071 10.9382 17.9969 12.8906 17.7311L25.3282 16.037L26.66 6.70089C27.2059 2.88059 30.5233 0 34.377 0C34.7462 0 35.1191 0.0264461 35.4864 0.079067L69.7891 4.97335C71.8523 5.26765 73.6772 6.34787 74.9281 8.01465C76.1789 9.68157 76.705 11.7361 76.4111 13.7989ZM53.2105 44.0266C51.9707 34.9218 44.1163 28.0563 34.9406 28.0563C34.1063 28.0563 33.261 28.1138 32.4284 28.2273C32.3592 28.2368 32.2907 28.2504 32.2219 28.2606C32.1719 28.2658 32.1212 28.2692 32.0717 28.2757C31.9594 28.2909 31.8493 28.3155 31.7393 28.3381C27.1366 29.1392 23.0677 31.6065 20.225 35.3459C17.2404 39.2712 15.9635 44.1239 16.6291 49.0095C17.1239 52.6415 18.6735 55.9152 20.9375 58.5412C21.0343 58.6822 21.1452 58.8112 21.2749 58.9205C24.6763 62.6547 29.5627 64.9801 34.8987 64.9801C34.8991 64.9801 34.8996 64.9801 34.8996 64.9801C35.4907 64.9801 36.0868 64.9498 36.6807 64.8927C36.8058 64.8855 36.9306 64.8749 37.0543 64.8579C37.0841 64.8537 37.1133 64.8458 37.1431 64.8412C37.2324 64.8302 37.322 64.8215 37.4112 64.8094C42.2973 64.1441 46.6313 61.6157 49.6155 57.6904C52.5997 53.7652 53.8763 48.9125 53.2105 44.0266ZM71.9026 10.2848C71.2582 9.42579 70.3183 8.86947 69.255 8.71785L34.9523 3.82356C34.7614 3.7963 34.568 3.78233 34.377 3.78233C32.3935 3.78233 30.6855 5.26684 30.4048 7.23524L29.2248 15.5064L38.4123 14.2551L48.0689 12.94C48.401 12.8946 48.7383 12.8719 49.0709 12.8719C52.7382 12.8719 55.8771 15.6153 56.3721 19.253L56.4296 19.674C56.4296 19.6744 56.4296 19.6751 56.43 19.6755L62.7714 66.2313C64.2246 65.7843 65.3532 64.5263 65.5763 62.9611L72.667 13.2652C72.8183 12.2021 72.5468 11.1434 71.9026 10.2848ZM43.6074 52.6899L48.5296 52.0193C49.2482 50.25 49.6109 48.3569 49.595 46.4275L43.4964 47.2581C43.6664 49.1311 43.7019 50.9598 43.6074 52.6899ZM29.8913 49.1115C30.2578 51.0759 30.7487 52.8374 31.309 54.365L39.7858 53.2103C39.9228 51.5121 39.9061 49.6728 39.7419 47.7695L29.8913 49.1115ZM42.8143 58.0017C42.7121 58.3856 42.599 58.7498 42.4799 59.1043C43.7735 58.327 44.9453 57.3466 45.9581 56.1869L43.1411 56.5705C43.0449 57.0626 42.9364 57.5411 42.8143 58.0017ZM38.8304 32.3707C39.3406 33.1302 39.8176 33.9698 40.2559 34.8742L43.2697 34.4639C41.9284 33.5315 40.431 32.8166 38.8304 32.3707ZM49.0837 42.68C48.5989 40.8951 47.7883 39.2506 46.7218 37.8107L41.7076 38.4938C42.237 40.0963 42.666 41.7924 42.9838 43.511L49.0837 42.68Z" fill="#686157"/>
</svg>
