<svg width="83" height="83" viewBox="0 0 83 83" fill="none" xmlns="http://www.w3.org/2000/svg">
<g clip-path="url(#clip0_3_435)">
<path d="M12.1582 48.6328H4.05273C2.70982 48.6328 1.62109 49.7215 1.62109 51.0645C1.62109 52.4074 2.70982 53.4961 4.05273 53.4961H12.1582C13.5011 53.4961 14.5898 52.4074 14.5898 51.0645C14.5898 49.7215 13.5011 48.6328 12.1582 48.6328Z" fill="#686157"/>
<path d="M4.05273 34.043H12.1582C13.5011 34.043 14.5898 32.9542 14.5898 31.6113C14.5898 30.2684 13.5011 29.1797 12.1582 29.1797H4.05273C2.70982 29.1797 1.62109 30.2684 1.62109 31.6113C1.62109 32.9542 2.70982 34.043 4.05273 34.043Z" fill="#686157"/>
<path d="M5.67383 43.7695C7.01674 43.7695 8.10547 42.6808 8.10547 41.3379C8.10547 39.995 7.01674 38.9062 5.67383 38.9062H2.43164C1.08873 38.9062 0 39.995 0 41.3379C0 42.6808 1.08873 43.7695 2.43164 43.7695H5.67383Z" fill="#686157"/>
<path d="M63.5469 1.13025V12.9688H81.3047L63.5469 1.13025Z" fill="#686157"/>
<path d="M61.1152 17.832C59.7723 17.832 58.6836 16.7433 58.6836 15.4004V0H28.6934C23.7771 0 19.7773 3.99972 19.7773 8.91602V38.9062H13.7793C12.4364 38.9062 11.3477 39.995 11.3477 41.3379C11.3477 42.6808 12.4364 43.7695 13.7793 43.7695H19.7773V74.084C19.7773 79.0003 23.7771 83 28.6934 83H74.084C79.0003 83 83 79.0003 83 74.084V17.832H61.1152ZM31.9355 11.116H49.7676C51.1105 11.116 52.1992 12.2047 52.1992 13.5476C52.1992 14.8906 51.1105 15.9793 49.7676 15.9793H31.9355C30.5926 15.9793 29.5039 14.8906 29.5039 13.5476C29.5039 12.2047 30.5926 11.116 31.9355 11.116ZM70.8418 71.5598H31.9355C30.5926 71.5598 29.5039 70.4711 29.5039 69.1281C29.5039 67.7852 30.5926 66.6965 31.9355 66.6965H70.8418C72.1847 66.6965 73.2734 67.7852 73.2734 69.1281C73.2734 70.4711 72.1847 71.5598 70.8418 71.5598ZM70.8418 60.4436H31.9355C30.5926 60.4436 29.5039 59.3549 29.5039 58.012C29.5039 56.6691 30.5926 55.5803 31.9355 55.5803H70.8418C72.1847 55.5803 73.2734 56.6691 73.2734 58.012C73.2734 59.3549 72.1847 60.4436 70.8418 60.4436ZM70.8418 49.3276H31.9355C30.5926 49.3276 29.5039 48.2389 29.5039 46.896C29.5039 45.5531 30.5926 44.4643 31.9355 44.4643H70.8418C72.1847 44.4643 73.2734 45.5531 73.2734 46.896C73.2734 48.2389 72.1847 49.3276 70.8418 49.3276ZM70.8418 38.2114H31.9355C30.5926 38.2114 29.5039 37.1227 29.5039 35.7798C29.5039 34.4369 30.5926 33.3482 31.9355 33.3482H70.8418C72.1847 33.3482 73.2734 34.4369 73.2734 35.7798C73.2734 37.1227 72.1847 38.2114 70.8418 38.2114ZM70.8418 27.0954H31.9355C30.5926 27.0954 29.5039 26.0067 29.5039 24.6638C29.5039 23.3209 30.5926 22.2322 31.9355 22.2322H70.8418C72.1847 22.2322 73.2734 23.3209 73.2734 24.6638C73.2734 26.0067 72.1847 27.0954 70.8418 27.0954Z" fill="#686157"/>
</g>
<defs>
<clipPath id="clip0_3_435">
<rect width="83" height="83" fill="white"/>
</clipPath>
</defs>
</svg>
