<svg width="225" height="40" viewBox="0 0 225 40" fill="none" xmlns="http://www.w3.org/2000/svg">
<path d="M16.1162 21.8333C16.5647 21.8732 16.9827 21.9031 17.37 21.9231C17.7778 21.9231 18.1855 21.9231 18.5933 21.9231C18.9806 21.9231 19.419 21.9131 19.9083 21.8932C20.3976 21.8732 20.8155 21.8533 21.1621 21.8333L18.7156 15.2821L16.1162 21.8333ZM18.6239 9C19.1947 9.11966 19.7248 9.17949 20.2141 9.17949C20.6218 9.17949 21.1213 9.11966 21.7125 9C22.2018 10.416 22.7931 12.0413 23.4862 13.8761C24.1794 15.7108 24.9032 17.5855 25.6575 19.5C26.4118 21.4145 27.1662 23.2892 27.9205 25.1239C28.6952 26.9387 29.3884 28.5641 30 30C29.5923 29.9402 29.1743 29.9003 28.7462 29.8803C28.318 29.8405 27.6555 29.8205 26.7584 29.8205C25.9633 29.8205 25.3619 29.8405 24.9541 29.8803C24.5464 29.9202 24.1896 29.9601 23.8838 30C23.7819 29.641 23.6799 29.292 23.578 28.953C23.476 28.614 23.3537 28.2251 23.211 27.7863C23.0887 27.3476 22.9154 26.839 22.6911 26.2607C22.4873 25.6624 22.2324 24.9444 21.9266 24.1068C21.7839 24.1068 21.58 24.1068 21.315 24.1068C21.0703 24.0869 20.7951 24.0769 20.4893 24.0769C20.1835 24.057 19.8675 24.047 19.5413 24.047C19.2355 24.0271 18.9602 24.0171 18.7156 24.0171C18.1244 24.0171 17.5229 24.0271 16.9113 24.047C16.2997 24.047 15.739 24.067 15.2294 24.1068C14.6993 25.6026 14.2915 26.7991 14.0061 27.6966C13.7411 28.594 13.5372 29.3618 13.3945 30C12.9256 29.9202 12.579 29.8704 12.3547 29.8504C12.1509 29.8305 11.947 29.8205 11.7431 29.8205C11.5596 29.8205 11.3048 29.8305 10.9786 29.8504C10.6524 29.8704 10.3262 29.9202 10 30C10.3058 29.3618 10.683 28.5442 11.1315 27.547C11.58 26.5299 12.0591 25.4031 12.5688 24.1667C13.0989 22.9302 13.6391 21.6339 14.1896 20.2778C14.7604 18.9017 15.3109 17.5456 15.841 16.2094C16.3914 14.8533 16.9011 13.557 17.37 12.3205C17.8593 11.084 18.2773 9.97721 18.6239 9Z" fill="white"/>
<path d="M22 40V35H5V5H35V12H40V0H0V40H22Z" fill="white"/>
<path d="M35 35H27V40H40V17H35V35Z" fill="#B5B5B5"/>
<path d="M63.2556 18.81C63.6956 18.85 64.1056 18.88 64.4856 18.9C64.8856 18.9 65.2856 18.9 65.6856 18.9C66.0656 18.9 66.4956 18.89 66.9756 18.87C67.4556 18.85 67.8656 18.83 68.2056 18.81L65.8056 12.24L63.2556 18.81ZM65.7156 5.94C66.2756 6.06 66.7956 6.12 67.2756 6.12C67.6756 6.12 68.1656 6.06 68.7456 5.94C69.2256 7.36 69.8056 8.99 70.4856 10.83C71.1656 12.67 71.8756 14.55 72.6156 16.47C73.3556 18.39 74.0956 20.27 74.8356 22.11C75.5956 23.93 76.2756 25.56 76.8756 27C76.4756 26.94 76.0656 26.9 75.6456 26.88C75.2256 26.84 74.5756 26.82 73.6956 26.82C72.9156 26.82 72.3256 26.84 71.9256 26.88C71.5256 26.92 71.1756 26.96 70.8756 27C70.7756 26.64 70.6756 26.29 70.5756 25.95C70.4756 25.61 70.3556 25.22 70.2156 24.78C70.0956 24.34 69.9256 23.83 69.7056 23.25C69.5056 22.65 69.2556 21.93 68.9556 21.09C68.8156 21.09 68.6156 21.09 68.3556 21.09C68.1156 21.07 67.8456 21.06 67.5456 21.06C67.2456 21.04 66.9356 21.03 66.6156 21.03C66.3156 21.01 66.0456 21 65.8056 21C65.2256 21 64.6356 21.01 64.0356 21.03C63.4356 21.03 62.8856 21.05 62.3856 21.09C61.8656 22.59 61.4656 23.79 61.1856 24.69C60.9256 25.59 60.7256 26.36 60.5856 27C60.1256 26.92 59.7856 26.87 59.5656 26.85C59.3656 26.83 59.1656 26.82 58.9656 26.82C58.7856 26.82 58.5356 26.83 58.2156 26.85C57.8956 26.87 57.5756 26.92 57.2556 27C57.5556 26.36 57.9256 25.54 58.3656 24.54C58.8056 23.52 59.2756 22.39 59.7756 21.15C60.2956 19.91 60.8256 18.61 61.3656 17.25C61.9256 15.87 62.4656 14.51 62.9856 13.17C63.5256 11.81 64.0256 10.51 64.4856 9.27C64.9656 8.03 65.3756 6.92 65.7156 5.94Z" fill="white"/>
<path d="M87.4353 12.03C87.5753 12.03 87.7154 12.04 87.8554 12.06C87.9954 12.06 88.1354 12.06 88.2754 12.06C88.1954 12.62 88.1354 13.24 88.0954 13.92C88.0554 14.58 88.0354 15.2 88.0354 15.78C88.0354 15.96 88.0354 16.13 88.0354 16.29C88.0354 16.43 88.0454 16.57 88.0654 16.71L87.7054 16.92C87.4454 16.74 87.1854 16.59 86.9254 16.47C86.6654 16.35 86.3854 16.29 86.0854 16.29C85.5654 16.29 85.1654 16.42 84.8854 16.68C84.6054 16.94 84.3953 17.27 84.2553 17.67C84.1353 18.07 84.0554 18.5 84.0154 18.96C83.9954 19.42 83.9854 19.84 83.9854 20.22C83.9854 21.4 84.0053 22.59 84.0453 23.79C84.1053 24.97 84.1854 26.04 84.2854 27C83.8654 26.94 83.4154 26.9 82.9353 26.88C82.4553 26.86 82.0053 26.85 81.5854 26.85C81.1053 26.85 80.6454 26.87 80.2054 26.91C79.7854 26.95 79.4454 26.98 79.1853 27C79.2654 26.06 79.3154 25.08 79.3354 24.06C79.3754 23.02 79.3954 21.81 79.3954 20.43C79.3954 19.35 79.3853 18.41 79.3653 17.61C79.3653 16.79 79.3553 16.07 79.3354 15.45C79.3154 14.81 79.2854 14.24 79.2454 13.74C79.2254 13.22 79.1954 12.72 79.1553 12.24C79.5353 12.28 79.9154 12.32 80.2953 12.36C80.6954 12.38 81.1353 12.39 81.6153 12.39C82.0954 12.39 82.5254 12.38 82.9053 12.36C83.3054 12.32 83.6654 12.28 83.9854 12.24L83.7754 15.39C84.1553 14.41 84.6354 13.61 85.2154 12.99C85.7954 12.35 86.5353 12.03 87.4353 12.03Z" fill="white"/>
<path d="M92.8255 30.3C92.8255 31.2 93.1755 31.97 93.8755 32.61C94.5955 33.25 95.5955 33.57 96.8755 33.57C98.2755 33.57 99.3355 33.25 100.056 32.61C100.796 31.97 101.166 31.17 101.166 30.21C101.166 29.47 100.966 28.87 100.566 28.41C100.366 28.19 100.146 28.01 99.9055 27.87C99.6855 27.75 99.3755 27.65 98.9755 27.57C98.5955 27.51 98.0955 27.47 97.4755 27.45C96.8755 27.43 96.0955 27.41 95.1355 27.39C94.7355 27.39 94.4355 27.43 94.2355 27.51C94.0555 27.61 93.8455 27.82 93.6055 28.14C93.0855 28.84 92.8255 29.56 92.8255 30.3ZM94.6855 17.13C94.6855 18.29 94.8555 19.12 95.1955 19.62C95.5555 20.12 96.0655 20.37 96.7255 20.37C97.3655 20.37 97.8555 20.09 98.1955 19.53C98.5355 18.95 98.7055 18.03 98.7055 16.77C98.7055 14.51 98.0555 13.38 96.7555 13.38C96.0955 13.38 95.5855 13.69 95.2255 14.31C94.8655 14.91 94.6855 15.85 94.6855 17.13ZM96.4555 12C96.9955 12 97.5055 12.03 97.9855 12.09C98.4655 12.15 98.9555 12.22 99.4555 12.3C99.9555 12.36 100.476 12.42 101.016 12.48C101.576 12.54 102.196 12.57 102.876 12.57C103.136 12.57 103.466 12.57 103.866 12.57C104.266 12.55 104.606 12.52 104.886 12.48C104.786 12.72 104.736 12.98 104.736 13.26C104.736 13.44 104.746 13.59 104.766 13.71C104.786 13.83 104.826 13.99 104.886 14.19L102.066 14.07C102.446 14.39 102.726 14.8 102.906 15.3C103.086 15.8 103.176 16.31 103.176 16.83C103.176 17.61 103.006 18.3 102.666 18.9C102.346 19.5 101.896 20.01 101.316 20.43C100.756 20.83 100.086 21.14 99.3055 21.36C98.5455 21.56 97.7155 21.66 96.8155 21.66C96.5555 21.66 96.2955 21.65 96.0355 21.63C95.7755 21.61 95.5055 21.58 95.2255 21.54C95.1655 21.54 95.0855 21.58 94.9855 21.66C94.8855 21.72 94.7855 21.81 94.6855 21.93C94.6055 22.05 94.5255 22.19 94.4455 22.35C94.3855 22.49 94.3555 22.63 94.3555 22.77C94.3555 23.05 94.4255 23.27 94.5655 23.43C94.7255 23.57 94.9255 23.69 95.1655 23.79C95.4255 23.87 95.7155 23.93 96.0355 23.97C96.3755 23.99 96.7355 24 97.1155 24C98.0755 24.02 98.9055 24.04 99.6055 24.06C100.306 24.06 100.926 24.09 101.466 24.15C102.526 24.27 103.346 24.7 103.926 25.44C104.506 26.18 104.796 27.15 104.796 28.35C104.796 29.15 104.626 29.95 104.286 30.75C103.946 31.57 103.426 32.31 102.726 32.97C102.026 33.63 101.146 34.16 100.086 34.56C99.0255 34.98 97.7755 35.19 96.3355 35.19C94.2755 35.19 92.6555 34.78 91.4755 33.96C90.2955 33.16 89.7055 32.07 89.7055 30.69C89.7055 29.85 89.9655 29.13 90.4855 28.53C91.0055 27.95 91.8155 27.52 92.9155 27.24V27.06C92.2955 26.88 91.7855 26.58 91.3855 26.16C91.0055 25.72 90.8155 25.17 90.8155 24.51C90.8155 23.81 91.0755 23.2 91.5955 22.68C92.1355 22.14 92.8855 21.75 93.8455 21.51V21.24C92.6455 20.94 91.7255 20.4 91.0855 19.62C90.4455 18.84 90.1255 17.91 90.1255 16.83C90.1255 15.33 90.6755 14.15 91.7755 13.29C92.8955 12.43 94.4555 12 96.4555 12Z" fill="white"/>
<path d="M110.808 22.83C110.808 23.61 110.958 24.18 111.258 24.54C111.558 24.9 111.998 25.08 112.578 25.08C113.098 25.08 113.538 24.9 113.898 24.54C114.258 24.18 114.438 23.48 114.438 22.44V19.44C113.838 19.56 113.308 19.7 112.848 19.86C112.408 20 112.028 20.2 111.708 20.46C111.408 20.7 111.178 21.01 111.018 21.39C110.878 21.77 110.808 22.25 110.808 22.83ZM113.178 12.03C114.418 12.03 115.488 12.24 116.388 12.66C117.268 13.06 117.908 13.59 118.308 14.25C118.728 14.89 118.938 15.8 118.938 16.98C118.938 17.66 118.908 18.57 118.848 19.71C118.808 20.85 118.788 22.12 118.788 23.52C118.788 24.26 118.858 24.77 118.998 25.05C119.158 25.33 119.428 25.47 119.808 25.47C119.968 25.47 120.138 25.44 120.318 25.38C120.518 25.32 120.678 25.23 120.798 25.11C120.778 25.15 120.768 25.23 120.768 25.35C120.768 25.47 120.768 25.61 120.768 25.77C120.768 25.87 120.768 25.97 120.768 26.07C120.788 26.17 120.798 26.25 120.798 26.31C120.298 26.63 119.758 26.88 119.178 27.06C118.618 27.26 118.088 27.36 117.588 27.36C116.188 27.36 115.238 26.71 114.738 25.41C114.198 26.15 113.598 26.68 112.938 27C112.298 27.32 111.528 27.48 110.628 27.48C109.248 27.48 108.188 27.1 107.448 26.34C106.728 25.58 106.368 24.6 106.368 23.4C106.368 22.56 106.518 21.88 106.818 21.36C106.978 21.1 107.158 20.87 107.358 20.67C107.558 20.45 107.828 20.24 108.168 20.04C108.508 19.84 108.938 19.64 109.458 19.44C109.978 19.22 110.648 18.99 111.468 18.75L112.548 18.42C113.008 18.28 113.368 18.17 113.628 18.09C113.888 17.99 114.078 17.89 114.198 17.79C114.338 17.69 114.418 17.58 114.438 17.46C114.478 17.32 114.498 17.14 114.498 16.92C114.498 15.2 113.598 14.34 111.798 14.34C111.078 14.34 110.408 14.48 109.788 14.76C109.188 15.02 108.618 15.41 108.078 15.93L108.018 15.9C107.978 15.6 107.918 15.28 107.838 14.94C107.758 14.6 107.638 14.29 107.478 14.01C108.258 13.39 109.118 12.91 110.058 12.57C110.998 12.21 112.038 12.03 113.178 12.03Z" fill="white"/>
<path d="M132.018 12.03C132.558 12.03 133.118 12.1 133.698 12.24C134.278 12.36 134.818 12.59 135.318 12.93C135.818 13.27 136.228 13.74 136.548 14.34C136.868 14.94 137.028 15.71 137.028 16.65V23.55C137.028 23.87 137.038 24.34 137.058 24.96C137.078 25.58 137.118 26.26 137.178 27C136.758 26.96 136.328 26.93 135.888 26.91C135.468 26.87 135.038 26.85 134.598 26.85C134.058 26.85 133.558 26.87 133.098 26.91C132.658 26.95 132.328 26.98 132.108 27C132.228 25.86 132.308 24.73 132.348 23.61C132.388 22.47 132.408 21.27 132.408 20.01C132.408 19.21 132.388 18.5 132.348 17.88C132.328 17.24 132.248 16.7 132.108 16.26C131.968 15.8 131.738 15.45 131.418 15.21C131.098 14.97 130.658 14.85 130.098 14.85C129.258 14.85 128.638 15.14 128.238 15.72C127.858 16.28 127.668 17.1 127.668 18.18V24.9C127.668 25.14 127.678 25.43 127.698 25.77C127.718 26.11 127.758 26.52 127.818 27C127.378 26.96 126.968 26.93 126.588 26.91C126.228 26.87 125.848 26.85 125.448 26.85C125.048 26.85 124.608 26.86 124.128 26.88C123.668 26.9 123.228 26.94 122.808 27C122.888 26.16 122.938 25.37 122.958 24.63C122.998 23.87 123.018 23.27 123.018 22.83V16.59C123.018 16.07 122.998 15.44 122.958 14.7C122.938 13.96 122.878 13.14 122.778 12.24C123.158 12.28 123.538 12.32 123.918 12.36C124.298 12.38 124.738 12.39 125.238 12.39C125.718 12.39 126.148 12.38 126.528 12.36C126.908 12.32 127.278 12.28 127.638 12.24L127.458 14.58C127.958 13.78 128.598 13.16 129.378 12.72C130.158 12.26 131.038 12.03 132.018 12.03Z" fill="white"/>
<path d="M145.408 19.62C145.408 21.8 145.648 23.4 146.128 24.42C146.628 25.42 147.358 25.92 148.318 25.92C150.318 25.92 151.318 23.76 151.318 19.44C151.318 17.22 151.058 15.66 150.538 14.76C150.038 13.86 149.308 13.41 148.348 13.41C147.928 13.41 147.538 13.51 147.178 13.71C146.818 13.91 146.508 14.25 146.248 14.73C145.988 15.19 145.778 15.82 145.618 16.62C145.478 17.42 145.408 18.42 145.408 19.62ZM148.318 11.94C150.898 11.94 152.878 12.6 154.258 13.92C155.638 15.24 156.328 17.08 156.328 19.44C156.328 20.64 156.138 21.73 155.758 22.71C155.398 23.69 154.868 24.53 154.168 25.23C153.488 25.91 152.648 26.44 151.648 26.82C150.668 27.2 149.558 27.39 148.318 27.39C147.078 27.39 145.968 27.21 144.988 26.85C144.008 26.49 143.178 25.98 142.498 25.32C141.818 24.64 141.298 23.83 140.938 22.89C140.578 21.93 140.398 20.86 140.398 19.68C140.398 18.52 140.568 17.46 140.908 16.5C141.248 15.54 141.748 14.73 142.408 14.07C143.088 13.39 143.918 12.87 144.898 12.51C145.878 12.13 147.018 11.94 148.318 11.94Z" fill="white"/>
<path d="M157.395 12.24C157.895 12.32 158.375 12.37 158.835 12.39C159.315 12.39 159.795 12.39 160.275 12.39C160.755 12.39 161.215 12.39 161.655 12.39C162.115 12.37 162.565 12.32 163.005 12.24C163.285 13.5 163.685 15 164.205 16.74C164.745 18.46 165.325 20.26 165.945 22.14C166.405 20.84 166.775 19.77 167.055 18.93C167.355 18.07 167.595 17.37 167.775 16.83C167.955 16.27 168.095 15.83 168.195 15.51C168.315 15.17 168.415 14.85 168.495 14.55C168.595 14.25 168.685 13.93 168.765 13.59C168.865 13.25 168.995 12.8 169.155 12.24C169.495 12.3 169.825 12.34 170.145 12.36C170.465 12.38 170.725 12.39 170.925 12.39C171.045 12.39 171.165 12.39 171.285 12.39C171.405 12.37 171.515 12.35 171.615 12.33L172.365 12.24C172.185 12.58 172.035 12.87 171.915 13.11C171.795 13.33 171.675 13.55 171.555 13.77C171.455 13.99 171.345 14.24 171.225 14.52C171.105 14.78 170.975 15.1 170.835 15.48L168.135 22.53C168.035 22.77 167.915 23.08 167.775 23.46C167.635 23.82 167.485 24.21 167.325 24.63C167.185 25.05 167.045 25.47 166.905 25.89C166.785 26.31 166.685 26.68 166.605 27C166.285 26.96 165.965 26.93 165.645 26.91C165.325 26.87 164.995 26.85 164.655 26.85C164.335 26.85 164.005 26.87 163.665 26.91C163.345 26.93 163.035 26.96 162.735 27C162.555 26.3 162.255 25.32 161.835 24.06C161.435 22.78 160.975 21.43 160.455 20.01C159.935 18.57 159.405 17.16 158.865 15.78C158.325 14.38 157.835 13.2 157.395 12.24Z" fill="white"/>
<path d="M186.885 16.89C186.885 18.21 187.025 19.39 187.305 20.43C187.605 21.47 188.025 22.35 188.565 23.07C189.105 23.79 189.745 24.34 190.485 24.72C191.225 25.08 192.045 25.26 192.945 25.26C193.905 25.26 194.775 25.06 195.555 24.66C196.335 24.24 196.995 23.64 197.535 22.86C198.095 22.08 198.525 21.14 198.825 20.04C199.125 18.92 199.275 17.65 199.275 16.23C199.275 14.95 199.135 13.8 198.855 12.78C198.575 11.74 198.165 10.86 197.625 10.14C197.105 9.42 196.465 8.87 195.705 8.49C194.965 8.09 194.115 7.89 193.155 7.89C192.175 7.89 191.295 8.1 190.515 8.52C189.735 8.92 189.075 9.51 188.535 10.29C187.995 11.07 187.585 12.02 187.305 13.14C187.025 14.24 186.885 15.49 186.885 16.89ZM193.125 5.76C194.745 5.76 196.265 5.98 197.685 6.42C199.105 6.86 200.335 7.52 201.375 8.4C202.415 9.26 203.235 10.33 203.835 11.61C204.435 12.89 204.735 14.37 204.735 16.05C204.735 17.87 204.435 19.49 203.835 20.91C203.255 22.31 202.435 23.49 201.375 24.45C200.335 25.41 199.095 26.14 197.655 26.64C196.215 27.14 194.645 27.39 192.945 27.39C191.165 27.39 189.565 27.15 188.145 26.67C186.725 26.19 185.515 25.49 184.515 24.57C183.535 23.65 182.775 22.54 182.235 21.24C181.695 19.92 181.425 18.42 181.425 16.74C181.425 15.08 181.695 13.58 182.235 12.24C182.775 10.88 183.545 9.72 184.545 8.76C185.565 7.8 186.795 7.06 188.235 6.54C189.695 6.02 191.325 5.76 193.125 5.76Z" fill="white"/>
<path d="M210.795 18.81C211.235 18.85 211.645 18.88 212.025 18.9C212.425 18.9 212.825 18.9 213.225 18.9C213.605 18.9 214.035 18.89 214.515 18.87C214.995 18.85 215.405 18.83 215.745 18.81L213.345 12.24L210.795 18.81ZM213.255 5.94C213.815 6.06 214.335 6.12 214.815 6.12C215.215 6.12 215.705 6.06 216.285 5.94C216.765 7.36 217.345 8.99 218.025 10.83C218.705 12.67 219.415 14.55 220.155 16.47C220.895 18.39 221.635 20.27 222.375 22.11C223.135 23.93 223.815 25.56 224.415 27C224.015 26.94 223.605 26.9 223.185 26.88C222.765 26.84 222.115 26.82 221.235 26.82C220.455 26.82 219.865 26.84 219.465 26.88C219.065 26.92 218.715 26.96 218.415 27C218.315 26.64 218.215 26.29 218.115 25.95C218.015 25.61 217.895 25.22 217.755 24.78C217.635 24.34 217.465 23.83 217.245 23.25C217.045 22.65 216.795 21.93 216.495 21.09C216.355 21.09 216.155 21.09 215.895 21.09C215.655 21.07 215.385 21.06 215.085 21.06C214.785 21.04 214.475 21.03 214.155 21.03C213.855 21.01 213.585 21 213.345 21C212.765 21 212.175 21.01 211.575 21.03C210.975 21.03 210.425 21.05 209.925 21.09C209.405 22.59 209.005 23.79 208.725 24.69C208.465 25.59 208.265 26.36 208.125 27C207.665 26.92 207.325 26.87 207.105 26.85C206.905 26.83 206.705 26.82 206.505 26.82C206.325 26.82 206.075 26.83 205.755 26.85C205.435 26.87 205.115 26.92 204.795 27C205.095 26.36 205.465 25.54 205.905 24.54C206.345 23.52 206.815 22.39 207.315 21.15C207.835 19.91 208.365 18.61 208.905 17.25C209.465 15.87 210.005 14.51 210.525 13.17C211.065 11.81 211.565 10.51 212.025 9.27C212.505 8.03 212.915 6.92 213.255 5.94Z" fill="white"/>
</svg>
